<?xml version="1.0" standalone="no"?><!DOCTYPE svg PUBLIC "-//W3C//DTD SVG 1.1//EN" "http://www.w3.org/Graphics/SVG/1.1/DTD/svg11.dtd"><svg t="1568804911380" class="icon" viewBox="0 0 1024 1024" version="1.1" xmlns="http://www.w3.org/2000/svg" p-id="5650" xmlns:xlink="http://www.w3.org/1999/xlink" width="56" height="56"><defs><style type="text/css"></style></defs><path d="M512 512m-512 0a512 512 0 1 0 1024 0 512 512 0 1 0-1024 0Z" fill="#FF7F7F" p-id="5651"></path><path d="M800.225882 650.842353L556.574118 188.837647A49.995294 49.995294 0 0 0 512 160.527059a51.2 51.2 0 0 0-44.574118 28.310588L223.171765 650.842353a60.235294 60.235294 0 0 0 0 56.32 51.501176 51.501176 0 0 0 44.875294 28.310588h487.604706a49.995294 49.995294 0 0 0 44.574117-28.310588 58.127059 58.127059 0 0 0 0-56.32zM486.098824 321.957647a25.901176 25.901176 0 0 1 51.501176 0V512a25.901176 25.901176 0 1 1-51.501176 0z m51.501176 312.621177a36.743529 36.743529 0 0 1-25.901176 10.842352 37.345882 37.345882 0 0 1-25.901177-10.541176 36.442353 36.442353 0 1 1 62.343529-25.901176 36.141176 36.141176 0 0 1-10.24 25.6z" fill="#FFFFFF" p-id="5652"></path></svg>