<?xml version="1.0" standalone="no"?><!DOCTYPE svg PUBLIC "-//W3C//DTD SVG 1.1//EN" "http://www.w3.org/Graphics/SVG/1.1/DTD/svg11.dtd"><svg t="1570600637738" class="icon" viewBox="0 0 1024 1024" version="1.1" xmlns="http://www.w3.org/2000/svg" p-id="5151" width="56" height="56" xmlns:xlink="http://www.w3.org/1999/xlink"><defs><style type="text/css"></style></defs><path d="M165.728 734.72c-41.056-62.336-62.752-137.696-62.752-217.76 0-225.6 183.424-409.024 409.056-409.024 69.184 0 137.536 17.6 197.792 50.88a27.456 27.456 0 0 0 26.56-48 464.736 464.736 0 0 0-224.352-57.76 461.44 461.44 0 0 0-328 135.936 463.232 463.232 0 0 0-99.36 147.392 459.136 459.136 0 0 0-36.576 180.576c0 90.816 24.8 176.608 71.712 247.936a27.392 27.392 0 0 0 38.048 7.84 27.52 27.52 0 0 0 7.872-38.016z m808.32-260a27.456 27.456 0 0 0-54.624 4.992c1.12 12.352 1.632 24.928 1.632 37.408 0 225.6-183.424 409.056-409.024 409.056-50.624 0-115.008-13.728-168.128-35.808a27.392 27.392 0 0 0-35.904 14.848 27.424 27.424 0 0 0 14.848 35.936c60.256 24.8 130.944 39.776 189.184 39.776a461.312 461.312 0 0 0 327.968-135.936 461.216 461.216 0 0 0 99.392-147.392 459.168 459.168 0 0 0 36.544-180.608c0-14.112-0.608-28.32-1.888-42.272z m-73.312-66.592a27.328 27.328 0 0 0 34.272 18.176 27.552 27.552 0 0 0 18.208-34.272 462.72 462.72 0 0 0-154.272-226.464 27.36 27.36 0 0 0-38.528 4.352c-9.6 11.84-7.584 29.056 4.256 38.528 60.736 48.512 115.872 134.048 136.064 199.68zM208.224 789.856a27.52 27.52 0 0 0-38.752-1.504 27.488 27.488 0 0 0-1.504 38.784 468.8 468.8 0 0 0 81.44 69.856 27.456 27.456 0 1 0 30.688-45.536 414.08 414.08 0 0 1-71.872-61.6z m236.448-493.6h-87.296a27.488 27.488 0 0 0-27.424 27.424v396.576c0 15.104 12.32 27.424 27.424 27.424h314.24a27.52 27.52 0 0 0 27.424-27.424V323.68a27.52 27.52 0 0 0-27.424-27.424H573.12a15.04 15.04 0 0 0-14.976 14.976 15.04 15.04 0 0 0 14.976 14.976h96.032V717.76h-309.28V326.176h84.8a15.04 15.04 0 0 0 14.976-14.976 15.008 15.008 0 0 0-14.976-14.944z m133.44 82.304h-124.704a12.48 12.48 0 0 0 0 24.96h124.704c6.848 0 12.48-5.632 12.48-12.48a12.512 12.512 0 0 0-12.48-12.48z m39.904 62.336h-204.544a12.544 12.544 0 0 0-12.48 12.48c0 6.88 5.632 12.48 12.48 12.48h204.544c6.848 0 12.48-5.6 12.48-12.48a12.544 12.544 0 0 0-12.48-12.48z m1.28 62.368h-204.544a12.544 12.544 0 0 0-12.48 12.48c0 6.88 5.632 12.48 12.48 12.48h204.544c6.848 0 12.48-5.6 12.48-12.48a12.544 12.544 0 0 0-12.48-12.48z m12.448 74.816a12.512 12.512 0 0 0-12.48-12.48H414.72a12.512 12.512 0 0 0-12.48 12.48c0 6.848 5.632 12.48 12.48 12.48h204.544c6.848 0 12.48-5.632 12.48-12.48z m-175.84 54.88a12.48 12.48 0 0 0 0 24.96h124.704c6.848 0 12.48-5.632 12.48-12.48a12.512 12.512 0 0 0-12.48-12.48h-124.704z" fill="#22BBF4" p-id="5152"></path></svg>