<?xml version="1.0" standalone="no"?><!DOCTYPE svg PUBLIC "-//W3C//DTD SVG 1.1//EN" "http://www.w3.org/Graphics/SVG/1.1/DTD/svg11.dtd"><svg t="1570600865881" class="icon" viewBox="0 0 1027 1024" version="1.1" xmlns="http://www.w3.org/2000/svg" p-id="18596" width="56.1640625" height="56" xmlns:xlink="http://www.w3.org/1999/xlink"><defs><style type="text/css"></style></defs><path d="M513.781246 1023.998976a511.999488 511.999488 0 1 1 514.047486-511.999488 513.023487 513.023487 0 0 1-514.047486 511.999488zM430.07957 847.543472a12.533747 12.533747 0 0 0 7.516152 11.673589 11.571188 11.571188 0 0 0 6.143994 0.819199 11.919348 11.919348 0 0 0 7.188473-3.706876l73.379767-77.823923a12.861427 12.861427 0 0 0 3.031037-12.287987 12.451828 12.451828 0 0 0-8.765432-8.785911l-73.461686-18.882542a11.939828 11.939828 0 0 0-10.42431 2.334718 12.881907 12.881907 0 0 0-4.628475 9.95327z m368.762511-634.879365a17.285103 17.285103 0 0 0-8.663031-6.143994c-3.215357-0.880639-19.066861-7.618552-53.637067 12.513268L147.824492 543.190497a33.382367 33.382367 0 0 0-21.114859 27.729892 29.73693 29.73693 0 0 0 22.527978 25.477095l186.163014 63.999936 27.791332 11.878388 303.554256-311.295689-235.908884 340.09054 38.338522 16.383984 187.023173 64.552895a37.662682 37.662682 0 0 0 15.749104 3.706876 30.28989 30.28989 0 0 0 14.458866-3.645436 35.512284 35.512284 0 0 0 19.7427-28.835811l96.399263-527.543793a21.790698 21.790698 0 0 0-3.706876-12.984307z" fill="#2E80E6" p-id="18597"></path></svg>