<svg t="1626761425010" class="icon" viewBox="0 0 1230 1024" version="1.1" xmlns="http://www.w3.org/2000/svg" p-id="18059" width="200" height="200"><path d="M613.574194 980.232258c-11.56129 0-20.645161-9.083871-20.645162-20.645161V558.245161c0-11.56129 9.083871-20.645161 20.645162-20.645161s20.645161 9.083871 20.645161 20.645161v401.341936c0 11.56129-9.909677 20.645161-20.645161 20.645161z" fill="#6097FD" p-id="18060"></path><path d="M1202.374194 996.748387H23.948387c-11.56129 0-20.645161-9.083871-20.645161-20.645161s9.083871-20.645161 20.645161-20.645161h1178.425807c11.56129 0 20.645161 9.083871 20.645161 20.645161s-9.083871 20.645161-20.645161 20.645161z" fill="#6097FD" p-id="18061"></path><path d="M703.587097 950.503226v42.941935c0 15.690323-12.387097 28.077419-28.07742 28.07742H550.812903c-15.690323 0-28.077419-12.387097-28.077419-28.07742v-42.941935c0-15.690323 12.387097-28.077419 28.077419-28.07742h124.696774c15.690323 0.825806 28.077419 13.212903 28.07742 28.07742z" fill="#2767F4" p-id="18062"></path><path d="M703.587097 950.503226v23.12258c0 15.690323-12.387097 28.077419-28.07742 28.07742H550.812903c-15.690323 0-28.077419-12.387097-28.077419-28.07742v-23.12258c0-15.690323 12.387097-28.077419 28.077419-28.07742h124.696774c15.690323 0.825806 28.077419 13.212903 28.07742 28.07742z" fill="#3973F4" p-id="18063"></path><path d="M1213.109677 471.535484c0 81.754839-51.2 151.122581-122.219354 179.2-21.470968 8.258065-44.593548 13.212903-69.367742 13.212903H205.625806c-59.458065 0-112.309677-27.251613-147.819354-69.367742-28.077419-33.032258-44.593548-75.974194-44.593549-123.045161 0-17.341935 2.477419-34.683871 6.606452-51.2 22.296774-80.929032 96.619355-141.212903 184.980645-141.212903h0.825806C231.225806 172.593548 327.019355 93.316129 441.806452 93.316129c47.896774 0 93.316129 14.03871 130.477419 37.987097C619.354839 56.154839 703.587097 5.780645 798.554839 5.780645c147.819355 0 267.56129 119.741935 267.56129 266.735484v11.56129c67.716129 16.516129 122.219355 68.541935 140.387097 135.432258 4.129032 17.341935 6.606452 33.858065 6.606451 52.025807z" fill="#C5DCFA" p-id="18064"></path><path d="M1206.503226 420.335484c-16.516129 58.632258-59.458065 105.703226-115.612903 128-21.470968 8.258065-44.593548 13.212903-69.367742 13.212903H205.625806c-59.458065 0-112.309677-27.251613-147.819354-69.367742-17.341935-20.645161-30.554839-45.419355-37.161291-71.845161 22.296774-80.929032 96.619355-141.212903 184.980645-141.212903h0.825807c25.6-106.529032 121.393548-185.806452 236.180645-185.806452 47.896774 0 93.316129 14.03871 130.477419 37.987097C620.180645 56.154839 704.412903 5.780645 799.380645 5.780645c147.819355 0 267.56129 119.741935 267.56129 266.735484v11.56129c66.890323 16.516129 121.393548 69.367742 139.561291 136.258065z" fill="#DFECFD" p-id="18065"></path></svg>