<svg t="1626856626808" class="icon" viewBox="0 0 1503 1024" version="1.1" xmlns="http://www.w3.org/2000/svg" p-id="3905" width="200" height="200"><path d="M0 312.164763v394.550709c2.583368 161.859731 338.186322 317.002706 751.525159 317.002706s748.75391-155.002064 751.52516-317.002706v-394.550709z" fill="#1B9BDB" p-id="3906"></path><path d="M1503.050319 310.990505c0 171.723499-336.54236 335.180221-751.52516 335.180221S0 482.714004 0 310.990505 336.54236 0 751.525159 0s751.525159 139.079125 751.52516 310.990505z" fill="#3ED6FF" p-id="3907"></path><path d="M685.907619 153.217192h49.929453v109.206h50.9628l-1.221229-109.206h49.929453L760.026788 23.485161z m101.737718 182.761525h-51.667354v127.665336h-52.888583l79.849548 129.919912 78.62832-129.919912h-52.32494z m209.910371-62.705381l-2.395486-51.667355-124.565295 77.735884 131.986606 77.923765-2.395486-51.667355h218.036236l-4.697032-51.996147z m-472.333562 0h-216.063484l-3.992477 51.996147h218.036237l-1.878813 51.667355 131.14114-77.923765-125.26985-77.735884z" fill="#FFFFFF" p-id="3908"></path></svg>