<svg t="1626761536432" class="icon" viewBox="0 0 1024 1024" version="1.1" xmlns="http://www.w3.org/2000/svg" p-id="21666" width="200" height="200"><path d="M982.486486 985.254054H574.962162c-12.454054 0-22.140541-9.686486-22.14054-22.14054 0-12.454054 9.686486-22.140541 22.14054-22.140541h407.524324c12.454054 0 22.140541 9.686486 22.140541 22.140541 0 11.762162-9.686486 22.140541-22.140541 22.14054zM514.075676 314.810811c-12.454054 0-22.140541-13.145946-22.140541-29.05946V217.945946c0-15.913514 9.686486-29.059459 22.140541-29.05946C526.52973 188.886486 536.216216 202.032432 536.216216 217.945946v67.805405c0 15.913514-9.686486 29.059459-22.14054 29.05946zM514.075676 602.637838c-12.454054 0-22.140541-16.605405-22.140541-36.67027V491.243243c0-20.064865 9.686486-36.67027 22.140541-36.67027 12.454054 0 22.140541 16.605405 22.14054 36.67027v74.724325c0 20.064865-9.686486 36.67027-22.14054 36.67027zM453.189189 985.254054H44.972973c-12.454054 0-22.140541-9.686486-22.140541-22.14054 0-12.454054 9.686486-22.140541 22.140541-22.140541h408.216216c12.454054 0 22.140541 9.686486 22.140541 22.140541 0 11.762162-9.686486 22.140541-22.140541 22.14054zM514.075676 923.675676c-12.454054 0-22.140541-9.686486-22.140541-22.140541V765.232432c0-12.454054 9.686486-22.140541 22.140541-22.14054 12.454054 0 22.140541 9.686486 22.14054 22.14054v136.302703c0 12.454054-9.686486 22.140541-22.14054 22.140541z" fill="#3973F4" p-id="21667"></path><path d="M514.075676 963.113514m-60.886487 0a60.886486 60.886486 0 1 0 121.772973 0 60.886486 60.886486 0 1 0-121.772973 0Z" fill="#C5DCFA" p-id="21668"></path><path d="M944.432432 224.864865H83.718919c-18.681081 0-33.902703-15.221622-33.902703-33.902703V35.978378C49.816216 17.297297 65.037838 2.075676 83.718919 2.075676H944.432432c18.681081 0 33.902703 15.221622 33.902703 33.902702v154.983784c0 18.681081-15.221622 33.902703-33.902703 33.902703z" fill="#4988FD" p-id="21669"></path><path d="M128.691892 119.005405h29.059459M157.751351 132.151351h-29.059459c-7.610811 0-13.145946-6.227027-13.145946-13.145946 0-6.918919 6.227027-13.145946 13.145946-13.145946h29.059459c7.610811 0 13.145946 6.227027 13.145946 13.145946 0 6.918919-6.227027 13.145946-13.145946 13.145946z" fill="#3973F4" p-id="21670"></path><path d="M208.259459 119.005405h28.367568M236.627027 132.151351h-29.059459c-7.610811 0-13.145946-6.227027-13.145946-13.145946 0-6.918919 6.227027-13.145946 13.145946-13.145946h29.059459c7.610811 0 13.145946 6.227027 13.145946 13.145946 0 6.918919-5.535135 13.145946-13.145946 13.145946z" fill="#3973F4" p-id="21671"></path><path d="M287.135135 119.005405h29.05946M316.194595 132.151351H287.135135c-7.610811 0-13.145946-6.227027-13.145946-13.145946 0-6.918919 6.227027-13.145946 13.145946-13.145946h29.05946c7.610811 0 13.145946 6.227027 13.145946 13.145946 0 6.918919-6.227027 13.145946-13.145946 13.145946z" fill="#3973F4" p-id="21672"></path><path d="M366.702703 119.005405h28.367567M395.07027 132.151351h-29.059459c-7.610811 0-13.145946-6.227027-13.145946-13.145946 0-6.918919 6.227027-13.145946 13.145946-13.145946h29.059459c7.610811 0 13.145946 6.227027 13.145946 13.145946 0 6.918919-5.535135 13.145946-13.145946 13.145946z" fill="#3973F4" p-id="21673"></path><path d="M445.578378 119.005405h29.05946M474.637838 132.151351h-29.05946c-7.610811 0-13.145946-6.227027-13.145946-13.145946 0-6.918919 6.227027-13.145946 13.145946-13.145946h29.05946c7.610811 0 13.145946 6.227027 13.145946 13.145946 0 6.918919-6.227027 13.145946-13.145946 13.145946z" fill="#3973F4" p-id="21674"></path><path d="M525.145946 119.005405h28.367568M553.513514 132.151351h-29.05946c-7.610811 0-13.145946-6.227027-13.145946-13.145946 0-6.918919 6.227027-13.145946 13.145946-13.145946h29.05946c7.610811 0 13.145946 6.227027 13.145945 13.145946 0 6.918919-5.535135 13.145946-13.145945 13.145946z" fill="#3973F4" p-id="21675"></path><path d="M604.021622 119.005405H633.081081M633.081081 132.151351h-29.059459c-7.610811 0-13.145946-6.227027-13.145946-13.145946 0-6.918919 6.227027-13.145946 13.145946-13.145946H633.081081c7.610811 0 13.145946 6.227027 13.145946 13.145946 0 6.918919-6.227027 13.145946-13.145946 13.145946z" fill="#3973F4" p-id="21676"></path><path d="M860.021622 119.005405m-49.816217 0a49.816216 49.816216 0 1 0 99.632433 0 49.816216 49.816216 0 1 0-99.632433 0Z" fill="#3973F4" p-id="21677"></path><path d="M944.432432 501.621622H83.718919c-18.681081 0-33.902703-15.221622-33.902703-33.902703V312.735135C49.816216 294.054054 65.037838 278.832432 83.718919 278.832432H944.432432c18.681081 0 33.902703 15.221622 33.902703 33.902703v154.983784c0 18.681081-15.221622 33.902703-33.902703 33.902703z" fill="#4988FD" p-id="21678"></path><path d="M128.691892 395.762162h29.059459M157.751351 408.908108h-29.059459c-7.610811 0-13.145946-6.227027-13.145946-13.145946 0-6.918919 6.227027-13.145946 13.145946-13.145946h29.059459c7.610811 0 13.145946 6.227027 13.145946 13.145946 0 6.918919-6.227027 13.145946-13.145946 13.145946z" fill="#3973F4" p-id="21679"></path><path d="M208.259459 395.762162h28.367568M236.627027 408.908108h-29.059459c-7.610811 0-13.145946-6.227027-13.145946-13.145946 0-6.918919 6.227027-13.145946 13.145946-13.145946h29.059459c7.610811 0 13.145946 6.227027 13.145946 13.145946 0 6.918919-5.535135 13.145946-13.145946 13.145946z" fill="#3973F4" p-id="21680"></path><path d="M287.135135 395.762162h29.05946M316.194595 408.908108H287.135135c-7.610811 0-13.145946-6.227027-13.145946-13.145946 0-6.918919 6.227027-13.145946 13.145946-13.145946h29.05946c7.610811 0 13.145946 6.227027 13.145946 13.145946 0 6.918919-6.227027 13.145946-13.145946 13.145946z" fill="#3973F4" p-id="21681"></path><path d="M366.702703 395.762162h28.367567M395.07027 408.908108h-29.059459c-7.610811 0-13.145946-6.227027-13.145946-13.145946 0-6.918919 6.227027-13.145946 13.145946-13.145946h29.059459c7.610811 0 13.145946 6.227027 13.145946 13.145946 0 6.918919-5.535135 13.145946-13.145946 13.145946z" fill="#3973F4" p-id="21682"></path><path d="M445.578378 395.762162h29.05946M474.637838 408.908108h-29.05946c-7.610811 0-13.145946-6.227027-13.145946-13.145946 0-6.918919 6.227027-13.145946 13.145946-13.145946h29.05946c7.610811 0 13.145946 6.227027 13.145946 13.145946 0 6.918919-6.227027 13.145946-13.145946 13.145946z" fill="#3973F4" p-id="21683"></path><path d="M525.145946 395.762162h28.367568M553.513514 408.908108h-29.05946c-7.610811 0-13.145946-6.227027-13.145946-13.145946 0-6.918919 6.227027-13.145946 13.145946-13.145946h29.05946c7.610811 0 13.145946 6.227027 13.145945 13.145946 0 6.918919-5.535135 13.145946-13.145945 13.145946z" fill="#3973F4" p-id="21684"></path><path d="M604.021622 395.762162H633.081081M633.081081 408.908108h-29.059459c-7.610811 0-13.145946-6.227027-13.145946-13.145946 0-6.918919 6.227027-13.145946 13.145946-13.145946H633.081081c7.610811 0 13.145946 6.227027 13.145946 13.145946 0 6.918919-6.227027 13.145946-13.145946 13.145946z" fill="#3973F4" p-id="21685"></path><path d="M860.021622 395.762162m-49.816217 0a49.816216 49.816216 0 1 0 99.632433 0 49.816216 49.816216 0 1 0-99.632433 0Z" fill="#3973F4" p-id="21686"></path><path d="M944.432432 778.378378H83.718919c-18.681081 0-33.902703-15.221622-33.902703-33.902702V589.491892C49.816216 570.810811 65.037838 555.589189 83.718919 555.589189H944.432432c18.681081 0 33.902703 15.221622 33.902703 33.902703v154.983784c0 18.681081-15.221622 33.902703-33.902703 33.902702z" fill="#4988FD" p-id="21687"></path><path d="M128.691892 672.518919h29.059459M157.751351 685.664865h-29.059459c-7.610811 0-13.145946-6.227027-13.145946-13.145946 0-6.918919 6.227027-13.145946 13.145946-13.145946h29.059459c7.610811 0 13.145946 6.227027 13.145946 13.145946 0 6.918919-6.227027 13.145946-13.145946 13.145946z" fill="#3973F4" p-id="21688"></path><path d="M208.259459 672.518919h28.367568M236.627027 685.664865h-29.059459c-7.610811 0-13.145946-6.227027-13.145946-13.145946 0-6.918919 6.227027-13.145946 13.145946-13.145946h29.059459c7.610811 0 13.145946 6.227027 13.145946 13.145946 0 6.918919-5.535135 13.145946-13.145946 13.145946z" fill="#3973F4" p-id="21689"></path><path d="M287.135135 672.518919h29.05946M316.194595 685.664865H287.135135c-7.610811 0-13.145946-6.227027-13.145946-13.145946 0-6.918919 6.227027-13.145946 13.145946-13.145946h29.05946c7.610811 0 13.145946 6.227027 13.145946 13.145946 0 6.918919-6.227027 13.145946-13.145946 13.145946z" fill="#3973F4" p-id="21690"></path><path d="M366.702703 672.518919h28.367567M395.07027 685.664865h-29.059459c-7.610811 0-13.145946-6.227027-13.145946-13.145946 0-6.918919 6.227027-13.145946 13.145946-13.145946h29.059459c7.610811 0 13.145946 6.227027 13.145946 13.145946 0 6.918919-5.535135 13.145946-13.145946 13.145946z" fill="#3973F4" p-id="21691"></path><path d="M445.578378 672.518919h29.05946M474.637838 685.664865h-29.05946c-7.610811 0-13.145946-6.227027-13.145946-13.145946 0-6.918919 6.227027-13.145946 13.145946-13.145946h29.05946c7.610811 0 13.145946 6.227027 13.145946 13.145946 0 6.918919-6.227027 13.145946-13.145946 13.145946z" fill="#3973F4" p-id="21692"></path><path d="M525.145946 672.518919h28.367568M553.513514 685.664865h-29.05946c-7.610811 0-13.145946-6.227027-13.145946-13.145946 0-6.918919 6.227027-13.145946 13.145946-13.145946h29.05946c7.610811 0 13.145946 6.227027 13.145945 13.145946 0 6.918919-5.535135 13.145946-13.145945 13.145946z" fill="#3973F4" p-id="21693"></path><path d="M604.021622 672.518919H633.081081M633.081081 685.664865h-29.059459c-7.610811 0-13.145946-6.227027-13.145946-13.145946 0-6.918919 6.227027-13.145946 13.145946-13.145946H633.081081c7.610811 0 13.145946 6.227027 13.145946 13.145946 0 6.918919-6.227027 13.145946-13.145946 13.145946z" fill="#3973F4" p-id="21694"></path><path d="M860.021622 672.518919m-49.816217 0a49.816216 49.816216 0 1 0 99.632433 0 49.816216 49.816216 0 1 0-99.632433 0Z" fill="#3973F4" p-id="21695"></path></svg>