<svg t="1628069272944" class="icon" viewBox="0 0 1024 1024" version="1.1" xmlns="http://www.w3.org/2000/svg" p-id="4667" width="200" height="200"><path d="M0 0h1024v1024H0z" fill="#D6F4FF" p-id="4668"></path><path d="M0 0h1024v1024H0V0z m10.666667 10.666667v1002.666666h1002.666666V10.666667H10.666667z" fill="#4CB8E0" p-id="4669"></path><path d="M315.52 420.693333h16.853333V576h-16.853333v-155.306667z m96 42.026667c16.426667 0 29.653333 5.546667 39.466667 17.066667 9.386667 10.88 14.08 24.533333 14.08 41.173333 0 16.426667-4.693333 30.08-13.866667 40.746667-10.026667 11.52-23.253333 17.28-39.68 17.28-16.64 0-29.653333-5.76-39.466667-17.28-9.386667-10.666667-14.08-24.32-14.08-40.746667 0-16.64 4.693333-30.293333 14.08-41.173333 9.813333-11.52 22.826667-17.066667 39.466667-17.066667z m0 14.293333c-11.733333 0-20.906667 4.48-27.306667 13.44-5.973333 8.106667-8.746667 18.133333-8.746666 30.506667 0 12.16 2.773333 22.186667 8.746666 30.293333 6.4 8.96 15.573333 13.44 27.306667 13.44 11.52 0 20.693333-4.48 27.52-13.44 5.76-8.106667 8.746667-18.346667 8.746667-30.293333 0-12.373333-2.986667-22.4-8.746667-30.506667-6.826667-8.96-16-13.44-27.52-13.44z m121.173333-14.293333c16.64 0 29.013333 7.253333 37.12 21.973333v-18.986666h17.066667v102.613333c0 35.2-16.853333 52.906667-50.346667 52.906667-14.933333 0-26.453333-2.986667-34.133333-8.96-7.893333-5.973333-12.8-14.933333-14.72-26.88h17.066667c1.28 7.466667 4.48 13.013333 9.386666 16.426666 4.906667 3.626667 12.373333 5.546667 22.4 5.546667 22.186667 0 33.28-12.373333 33.28-36.693333v-19.413334c-8.106667 14.72-20.48 22.186667-37.12 22.186667-15.36 0-27.52-5.333333-36.48-15.786667-8.96-10.24-13.226667-23.253333-13.226666-39.253333 0-16.213333 4.266667-29.226667 13.226666-39.466667 8.96-10.88 21.12-16.213333 36.48-16.213333z m2.56 14.08c-11.093333 0-19.626667 3.84-25.813333 11.946667-5.973333 7.253333-8.96 17.28-8.96 29.653333 0 11.52 2.56 21.12 7.893333 28.373333 5.973333 8.106667 14.72 12.373333 26.666667 12.373334 11.093333 0 19.626667-3.84 26.026667-11.52 5.973333-7.466667 8.96-17.28 8.96-29.226667 0-12.373333-2.986667-22.4-8.96-29.653333-6.4-8.106667-14.933333-11.946667-25.813334-11.946667z m127.36-14.08c16.426667 0 29.653333 5.546667 39.466667 17.066667 9.386667 10.88 14.08 24.533333 14.08 41.173333 0 16.426667-4.693333 30.08-13.866667 40.746667-10.026667 11.52-23.253333 17.28-39.68 17.28-16.64 0-29.653333-5.76-39.466666-17.28-9.386667-10.666667-14.08-24.32-14.08-40.746667 0-16.64 4.693333-30.293333 14.08-41.173333 9.813333-11.52 22.826667-17.066667 39.466666-17.066667z m0 14.293333c-11.733333 0-20.906667 4.48-27.306666 13.44-5.973333 8.106667-8.746667 18.133333-8.746667 30.506667 0 12.16 2.773333 22.186667 8.746667 30.293333 6.4 8.96 15.573333 13.44 27.306666 13.44 11.52 0 20.693333-4.48 27.52-13.44 5.76-8.106667 8.746667-18.346667 8.746667-30.293333 0-12.373333-2.986667-22.4-8.746667-30.506667-6.826667-8.96-16-13.44-27.52-13.44z" fill="#4CB8E0" p-id="4670"></path></svg>