<?xml version="1.0" standalone="no"?><!DOCTYPE svg PUBLIC "-//W3C//DTD SVG 1.1//EN" "http://www.w3.org/Graphics/SVG/1.1/DTD/svg11.dtd"><svg t="1603187149687" class="icon" viewBox="0 0 1024 1024" version="1.1" xmlns="http://www.w3.org/2000/svg" p-id="3110" width="56" height="56" xmlns:xlink="http://www.w3.org/1999/xlink"><defs><style type="text/css"></style></defs><path d="M704 550.4H633.6V313.6c0-19.2-12.8-25.6-25.6-25.6s-32 6.4-32 25.6v428.8c0 12.8 12.8 25.6 25.6 25.6s19.2-6.4 25.6-12.8l6.4-6.4 96-147.2c19.2-25.6 12.8-51.2-25.6-51.2zM390.4 281.6c-6.4 0-12.8 6.4-19.2 12.8L262.4 454.4c-19.2 25.6-6.4 44.8 19.2 44.8h76.8v236.8c0 19.2 12.8 32 25.6 32s25.6-12.8 25.6-25.6V313.6c6.4-19.2-6.4-32-19.2-32z" fill="#2e80e6" p-id="3111"></path><path d="M512 0C230.4 0 0 230.4 0 512s230.4 512 512 512 512-230.4 512-512-230.4-512-512-512z m0 966.4C262.4 966.4 57.6 761.6 57.6 512 57.6 262.4 262.4 57.6 512 57.6s454.4 204.8 454.4 454.4c0 249.6-204.8 454.4-454.4 454.4z" fill="#2e80e6" p-id="3112"></path></svg>