<?xml version="1.0" standalone="no"?><!DOCTYPE svg PUBLIC "-//W3C//DTD SVG 1.1//EN" "http://www.w3.org/Graphics/SVG/1.1/DTD/svg11.dtd"><svg t="1568804581836" class="icon" viewBox="0 0 1024 1024" version="1.1" xmlns="http://www.w3.org/2000/svg" p-id="1655" width="56" height="56" xmlns:xlink="http://www.w3.org/1999/xlink"><defs><style type="text/css"></style></defs><path d="M512 1024C227.84 1024 0 796.16 0 512S227.84 0 512 0s512 227.84 512 512-227.84 512-512 512z m-171.52-317.44l-25.6-15.36c-17.92 76.8-15.36 122.88 7.68 135.68 23.04 12.8 64-5.12 122.88-58.88l-28.16-15.36c-25.6 15.36-43.52 15.36-56.32 10.24-15.36-10.24-20.48-28.16-20.48-56.32z m-43.52-286.72c-10.24-7.68-40.96 20.48-89.6 79.36l66.56 38.4c28.16-74.24 35.84-112.64 23.04-117.76z m391.68 225.28c-10.24-7.68-40.96 20.48-89.6 79.36l66.56 38.4c25.6-71.68 33.28-110.08 23.04-117.76zM716.8 197.12c-2.56-10.24-10.24-17.92-15.36-23.04-7.68-2.56-17.92-5.12-28.16-2.56-76.8 23.04-130.56 46.08-163.84 76.8-58.88 51.2-87.04 104.96-110.08 153.6-15.36 33.28-35.84 102.4-61.44 212.48 112.64 66.56 171.52 99.84 174.08 99.84 2.56-2.56 145.92-156.16 151.04-161.28 2.56-5.12 66.56-94.72 76.8-174.08 2.56-46.08-5.12-107.52-23.04-181.76z m-151.04 248.32c-17.92-10.24-28.16-28.16-28.16-48.64 0-20.48 10.24-38.4 28.16-48.64 17.92-10.24 40.96-10.24 56.32 0 25.6 15.36 35.84 48.64 20.48 76.8-17.92 25.6-51.2 33.28-76.8 20.48z" p-id="1656" fill="#8992c8"></path></svg>