<?xml version="1.0" standalone="no"?><!DOCTYPE svg PUBLIC "-//W3C//DTD SVG 1.1//EN" "http://www.w3.org/Graphics/SVG/1.1/DTD/svg11.dtd"><svg t="1591327778576" class="icon" viewBox="0 0 1024 1024" version="1.1" xmlns="http://www.w3.org/2000/svg" p-id="7445" xmlns:xlink="http://www.w3.org/1999/xlink" width="20" height="20"><defs><style type="text/css"></style></defs><path d="M228.693333 390.826667h11.946667-11.946667v262.826666L491.52 785.066667V501.76l-262.826667-131.413333zM756.053333 349.866667L512 228.693333l-93.866667 46.08 244.053334 121.173334zM375.466667 298.666667l-107.52 51.2L512 471.04l110.933333-54.613333zM795.306667 370.346667l-262.826667 131.413333V785.066667l262.826667-131.413334V411.306667z" fill="#4C88FF" p-id="7446"></path><path d="M512 0C228.693333 0 0 228.693333 0 512s228.693333 512 512 512 512-228.693333 512-512S795.306667 0 512 0z m324.266667 674.133333L512 836.266667l-324.266667-162.133334v-324.266666l324.266667-160.426667 324.266667 162.133333v322.56z" fill="#4C88FF" p-id="7447"></path></svg>