<?xml version="1.0" standalone="no"?><!DOCTYPE svg PUBLIC "-//W3C//DTD SVG 1.1//EN" "http://www.w3.org/Graphics/SVG/1.1/DTD/svg11.dtd"><svg t="1570601020375" class="icon" viewBox="0 0 1024 1024" version="1.1" xmlns="http://www.w3.org/2000/svg" p-id="24531" xmlns:xlink="http://www.w3.org/1999/xlink" width="56" height="56"><defs><style type="text/css"></style></defs><path d="M695.977 597L585.532 804.717a32.02 32.02 0 0 1-5.217 7.198 31.85 31.85 0 0 1-14.514 9.283c-16.901 5.167-34.79-4.345-39.958-21.246l-140.767-460.43-71.517 233.92c-4.344 14.208-17.68 23.195-31.862 22.626A32.073 32.073 0 0 1 274 597H160c-17.673 0-32-14.327-32-32 0-17.673 14.327-32 32-32h99l94.592-309.398c4.305-14.083 17.444-23.035 31.484-22.64 14.04-0.395 27.178 8.557 31.483 22.64l148.03 484.18 82.163-154.528a31.863 31.863 0 0 1 10.047-11.3C662.553 536.41 670.379 533 679 533h185c17.673 0 32 14.327 32 32 0 17.673-14.327 32-32 32H695.977zM512 1024C229.23 1024 0 794.77 0 512S229.23 0 512 0s512 229.23 512 512-229.23 512-512 512z m0-64c247.424 0 448-200.576 448-448S759.424 64 512 64 64 264.576 64 512s200.576 448 448 448z" fill="#aad08f" p-id="24532"></path></svg>