<?xml version="1.0" standalone="no"?><!DOCTYPE svg PUBLIC "-//W3C//DTD SVG 1.1//EN" "http://www.w3.org/Graphics/SVG/1.1/DTD/svg11.dtd"><svg t="1567506709952" class="icon" viewBox="0 0 1024 1024" version="1.1" xmlns="http://www.w3.org/2000/svg" p-id="11399" width="60" height="60" xmlns:xlink="http://www.w3.org/1999/xlink"><defs><style type="text/css"></style></defs><path d="M407.8 132.9l-343 192.4v384.8l343 192.4 343-192.4V325.3l-343-192.4z m180.2 332L394.7 658.2c-4.9 4.9-11.4 7.4-17.8 7.4-6.5 0-12.9-2.5-17.8-7.4L255 554.1c-9.9-9.8-9.9-25.8 0-35.7 9.9-9.9 25.8-9.9 35.7 0l86.2 86.2 175.4-175.4c9.8-9.8 25.8-9.8 35.7 0 9.8 9.9 9.8 25.9 0 35.7z" fill="#4CCABB" p-id="11400"></path><path d="M564.8 60.5l-55.8 32 21.5 12.2h0.2l170.5 97.7 185.2 105.9v407.2L530.7 919.2l-0.3-0.2-21.7 12.3 56.2 32.2 394.4-225.8V286.3L564.8 60.5z" fill="#B2ECE9" p-id="11401"></path></svg>