<?xml version="1.0" standalone="no"?><!DOCTYPE svg PUBLIC "-//W3C//DTD SVG 1.1//EN" "http://www.w3.org/Graphics/SVG/1.1/DTD/svg11.dtd"><svg t="1562588675134" class="icon" viewBox="0 0 1024 1024" version="1.1" xmlns="http://www.w3.org/2000/svg" p-id="11674" width="26" height="26" xmlns:xlink="http://www.w3.org/1999/xlink"><defs><style type="text/css"></style></defs><path d="M945.664 355.84c-0.512-2.048-1.536-4.096-2.56-6.144-2.048-4.096-4.096-8.704-5.632-13.312l-0.512-0.512c-3.584-8.704-7.168-17.408-12.8-26.624-14.336-26.112-57.856-69.632-132.096-70.656-38.4 0.512-91.648 11.264-125.44 62.464-2.048 2.56-3.584 5.12-4.608 7.68l-153.088 323.072-149.504-322.56c-10.24-22.528-37.376-32.256-59.392-21.504-22.528 10.24-32.256 36.864-22.016 59.392l156.672 337.408 0.512 0.512c20.48 37.888 46.08 57.344 77.312 57.344 29.696-1.024 54.272-20.992 71.68-59.392l157.696-332.288c0-0.512 0.512-0.512 0.512-1.024 4.096-6.656 14.336-22.016 49.664-22.016h0.512c36.352 0.512 52.224 20.992 54.272 24.064 0.512 1.536 1.536 3.072 2.56 4.096 1.536 2.048 3.584 7.168 5.632 12.288 2.048 5.12 4.608 11.264 7.68 17.408 13.824 42.496 20.992 84.48 20.992 124.928 0 100.864-35.328 186.368-107.008 261.632-76.288 73.216-162.304 108.544-263.168 108.544-103.936 0-189.952-35.328-262.144-108.032-74.24-71.168-109.568-157.184-109.568-261.12s35.328-189.952 108.544-263.168c55.296-58.368 128-94.208 209.92-103.936 39.424-3.072 55.296-3.072 100.352 0 5.12 0.512 52.224 7.168 91.136 21.504 11.264 4.096 23.552 3.584 34.304-1.536 10.752-5.12 19.456-13.824 23.04-25.088l0.512-2.048v-0.512c3.584-10.752 2.56-22.016-2.048-32.256-5.12-10.752-13.824-18.944-25.088-23.04-48.128-17.408-106.496-26.624-116.224-26.624-49.664-3.584-70.144-3.584-115.2 0C347.648 67.584 256 112.64 186.368 185.856 95.744 275.968 52.224 382.464 52.224 511.488c0 129.024 44.032 235.52 134.144 325.632 89.088 89.088 198.656 134.144 325.632 134.144 123.392 0 232.96-45.056 326.656-134.656 88.576-92.672 133.632-201.728 133.632-325.12-0.512-50.688-9.216-103.424-26.624-155.648z m-17.92-16.384z" fill="#03a9f4" p-id="11675"></path></svg>